<?xml version="1.0" encoding="utf-8"?>
<!-- Generator: Adobe Illustrator 24.0.2, SVG Export Plug-In . SVG Version: 6.00 Build 0)  -->
<svg version="1.1"
	 id="svg4201" inkscape:output_extension="org.inkscape.output.svg.inkscape" inkscape:version="0.46" sodipodi:docname="heading.svg" sodipodi:version="0.32" xmlns:cc="http://creativecommons.org/ns#" xmlns:dc="http://purl.org/dc/elements/1.1/" xmlns:inkscape="http://www.inkscape.org/namespaces/inkscape" xmlns:rdf="http://www.w3.org/1999/02/22-rdf-syntax-ns#" xmlns:sodipodi="http://sodipodi.sourceforge.net/DTD/sodipodi-0.dtd" xmlns:svg="http://www.w3.org/2000/svg"
	 xmlns="http://www.w3.org/2000/svg" xmlns:xlink="http://www.w3.org/1999/xlink" x="0px" y="0px" viewBox="0 0 340 340"
	 style="enable-background:new 0 0 340 340;" xml:space="preserve">
<style type="text/css">
	.st0{fill-rule:evenodd;clip-rule:evenodd;}
	.st1{fill:none;stroke:#FFFFFF;stroke-width:3;stroke-miterlimit:4;}
	.st2{fill:#FFFFFF;}
	.st3{fill:none;stroke:#FFFFFF;stroke-width:0.5;stroke-miterlimit:4.2875;}
	.st4{display:none;fill-rule:evenodd;clip-rule:evenodd;}
</style>
<sodipodi:namedview  bordercolor="#666666" borderopacity="1.0" gridtolerance="10000" guidetolerance="10" id="base" inkscape:current-layer="layer3" inkscape:cx="70.275877" inkscape:cy="313.56723" inkscape:document-units="px" inkscape:guide-bbox="true" inkscape:pageopacity="0.0" inkscape:pageshadow="2" inkscape:window-height="718" inkscape:window-width="1022" inkscape:window-x="0" inkscape:window-y="0" inkscape:zoom="0.35355339" objecttolerance="10" pagecolor="#ffffff" showgrid="false" showguides="true">
	<sodipodi:guide  id="guide4772" orientation="1,0" position="197.50061,988.00022"></sodipodi:guide>
	<sodipodi:guide  id="guide4774" orientation="0,1" position="77.137277,867.5"></sodipodi:guide>
</sodipodi:namedview>
<g id="layer3" transform="translate(-30.452878,-17.814455)" inkscape:groupmode="layer" inkscape:label="v">
	
		<path id="path5795" sodipodi:cx="191.42857" sodipodi:cy="187.36218" sodipodi:rx="114.28571" sodipodi:ry="114.28571" sodipodi:type="arc" class="st0" d="
		M323,187.8c0,67.7-54.8,122.5-122.5,122.5S78,255.5,78,187.8c0-67.7,54.8-122.5,122.5-122.5S323,120.2,323,187.8z"/>
	<g id="g5978" transform="matrix(-0.2012473,0.9795405,-0.9795405,-0.2012473,424.76388,29.258094)">
		<path id="path5639" class="st1" d="M105.7,190.4L82.2,191 M102.3,199.1l-19.5,2.2 M105.8,216L87,221.6 M112.2,232l-17.6,8.8
			 M121.2,246.6l-15.8,11.7 M132.6,259.5l-13.5,14.2 M146,270.3l-10.8,16.4 M161.2,278.4l-7.8,18 M177.5,283.8l-4.6,19.1
			 M194.5,286.3l-1.2,19.6 M211.7,285.9l2.2,19.5 M228.6,282.5l5.6,18.8 M244.6,276.1l8.8,17.5 M259.2,267.1l11.7,15.8 M272.1,255.7
			l14.3,13.5 M282.9,242.2L282.9,242.2 M282.9,242.3l16.4,10.8 M291.1,227.1l18,7.8 M296.5,210.8l19.1,4.6 M299,193.7l19.6,1.2
			 M298.6,176.5l19.5-2.2 M295.1,159.7l18.8-5.6 M288.7,143.7l17.6-8.8 M279.8,129l15.8-11.7 M268.4,116.1l13.5-14.3 M254.9,105.4
			L254.9,105.4 M254.9,105.4L265.7,89 M239.7,97.2l7.8-18 M223.4,91.8l4.6-19.1 M206.4,89.2l1.2-19.6 M189.2,89.7l-2.2-19.5
			 M172.3,93.2l-5.6-18.8 M156.3,99.5l-8.8-17.6 M141.6,108.5L130,92.8 M128.8,119.9l-14.3-13.5 M118,133.4l-16.4-10.8 M109.9,148.5
			l-18-7.8 M104.4,164.9l-19.1-4.6 M101.9,181.9l-19.6-1.2 M107.6,206.8l-23.2,4.7 M112.4,222.6l-22,8.7 M119.8,237.4l-20.1,12.4
			 M129.6,250.6l-17.7,15.7 M141.6,262l-14.7,18.5 M155.3,271.1l-11.3,20.8 M170.5,277.6l-7.5,22.5 M186.6,281.5l-3.5,23.4
			 M203,282.5l0.6,23.7 M219.4,280.7l4.7,23.2 M235.3,275.9l8.7,22 M250,268.5l12.4,20.2 M263.3,258.7l15.7,17.7 M274.6,246.7
			l18.5,14.7 M283.7,232.9l20.8,11.3 M290.3,217.8l22.5,7.5 M294.1,201.7l23.4,3.5 M295.1,185.2l23.6-0.6 M293.3,168.8l23.2-4.7
			 M288.5,153l22-8.7 M281.1,138.3l20.2-12.4 M271.3,125l17.7-15.7 M259.3,113.6l14.7-18.5 M245.6,104.5l11.3-20.8 M230.4,98
			l7.5-22.4 M214.4,94.2l3.5-23.4 M197.9,93.1l-0.6-23.7 M181.5,95l-4.7-23.2 M165.7,99.7l-8.7-22 M150.9,107.1L138.5,87 M137.6,117
			l-15.7-17.7 M126.3,128.9l-18.5-14.7 M117.2,142.7l-20.8-11.3 M110.6,157.9l-22.5-7.5 M106.8,173.9l-23.4-3.5"/>
		<path id="text5666" class="st2" d="M133.8,210l-21,4.3l-0.6-2.9l14.3-14.4l-16.5,3.4l-0.5-2.7l21-4.3l0.6,2.9l-14.3,14.4l16.5-3.4
			L133.8,210"/>
		<path id="text5670" class="st2" d="M277.9,180.7l-0.3-2.7c-1.1,0.1-2,0-2.8-0.3c-0.8-0.3-1.5-0.9-2.1-1.8c-0.6-0.9-1-1.9-1.3-3.1
			c-0.2-1.1-0.3-2-0.1-2.9s0.5-1.6,0.9-2.1c0.5-0.5,1-0.8,1.7-1c0.7-0.1,1.3-0.1,1.8,0.2c0.6,0.3,1.1,0.8,1.6,1.6
			c0.3,0.5,0.9,1.7,1.8,3.5c0.9,1.8,1.6,3.1,2.2,3.8c0.7,0.9,1.5,1.5,2.4,1.9c0.9,0.3,1.8,0.4,2.8,0.2c1.1-0.2,2-0.7,2.8-1.5
			c0.8-0.8,1.3-1.8,1.6-3.1c0.2-1.3,0.2-2.6-0.1-4c-0.3-1.6-0.9-2.9-1.6-4c-0.7-1.1-1.7-1.9-2.8-2.3c-1.1-0.4-2.3-0.6-3.5-0.4
			l0.3,2.7c1.4-0.1,2.5,0.2,3.3,0.8c0.8,0.7,1.4,1.8,1.8,3.5c0.3,1.7,0.3,3-0.2,3.9c-0.5,0.9-1.1,1.4-2,1.6c-0.8,0.2-1.4,0-2-0.4
			c-0.6-0.4-1.4-1.7-2.4-3.9c-1-2.2-1.7-3.6-2.3-4.4c-0.8-1.1-1.7-1.9-2.7-2.3c-1-0.4-2-0.5-3.2-0.3c-1.1,0.2-2.1,0.8-3,1.6
			c-0.9,0.8-1.4,1.9-1.7,3.2c-0.3,1.3-0.3,2.7,0,4.2c0.4,1.9,1,3.4,1.8,4.6c0.8,1.2,1.9,2,3.1,2.5
			C275.1,180.8,276.5,181,277.9,180.7"/>
		<path id="text5674" class="st2" d="M206.4,257.4l-1.3,22.2l2.9-0.6l0.4-14.4c0-1.5,0.1-3,0-4.5c1,2.1,1.6,3.4,1.7,3.7l6.9,13.4
			l3.4-0.7l0.8-11.3c0.2-2.8,0.3-5.4,0.1-7.8c0.5,1.3,1.2,2.7,2,4.4l6.1,12.8l2.8-0.6l-10.1-19.9l-2.7,0.5l-1.2,16.9
			c-0.1,1.4-0.2,2.3-0.2,2.6c-0.4-0.9-0.8-1.7-1.1-2.3l-7.7-15.1L206.4,257.4"/>
		<path id="text5678" class="st2" d="M174,99.7l4.3,21l15.2-3.1l-0.5-2.5l-12.4,2.5l-1.3-6.4l11.6-2.4l-0.5-2.5l-11.6,2.4l-1.5-7.2
			l12.9-2.6l-0.5-2.5L174,99.7"/>
		<path id="text5682" class="st2" d="M127,170.9l0.3-2c2.6,0.4,4.2-0.2,4.7-1.8c0.3-0.9,0.2-1.8-0.3-2.6c-0.5-0.9-1.4-1.5-2.6-1.9
			c-1.1-0.4-2.1-0.4-3,0c-0.9,0.4-1.4,1-1.7,1.8c-0.1,0.4-0.2,0.8-0.2,1.4l-2-0.9l0.1-0.3c0.3-0.9,0.3-1.8-0.1-2.6
			c-0.4-0.8-1.1-1.3-2-1.7c-0.9-0.3-1.7-0.3-2.4,0c-0.7,0.3-1.2,0.8-1.4,1.5c-0.2,0.7-0.2,1.5,0.2,2.2c0.4,0.7,1.1,1.3,2.2,1.8
			l-1.1,1.8c-1.5-0.8-2.6-1.7-3.1-2.9c-0.5-1.1-0.6-2.3-0.2-3.5c0.4-1.3,1.2-2.2,2.5-2.7c1.2-0.6,2.6-0.6,4-0.1
			c0.9,0.3,1.6,0.7,2.1,1.3c0.5,0.6,0.9,1.3,1,2.1c0.4-0.6,0.8-1,1.4-1.3c0.5-0.3,1.2-0.4,1.9-0.5c0.7,0,1.5,0.1,2.4,0.4
			c1.7,0.6,3,1.6,3.8,3c0.8,1.4,0.9,2.8,0.4,4.2c-0.4,1.3-1.3,2.3-2.6,2.9C130.1,171.2,128.6,171.3,127,170.9"/>
		<path id="text5686" class="st2" d="M147.4,120.9l-1.4,1.5c-0.8-0.6-1.5-1-2.1-1.1c-0.8-0.1-1.5,0.1-2.1,0.6
			c-0.9,0.8-1.1,2-0.7,3.5c0.4,1.3,1.4,2.9,3,4.8c-0.2-1-0.2-1.8,0-2.6c0.2-0.8,0.6-1.5,1.2-2c1-0.9,2.2-1.2,3.7-0.9
			c1.5,0.2,2.9,1.1,4.2,2.6c0.9,1,1.5,2.1,1.9,3.2c0.4,1.1,0.4,2.1,0.2,3c-0.2,0.9-0.7,1.7-1.4,2.3c-1.2,1.1-2.8,1.4-4.6,1
			c-1.8-0.4-3.9-1.9-6.2-4.5c-2.6-2.9-4-5.3-4.2-7.3c-0.3-2,0.2-3.5,1.5-4.7c0.9-0.8,2-1.2,3.2-1.1
			C145,119.2,146.2,119.8,147.4,120.9 M147,132.8c1,1.1,2,1.7,3.1,1.9c1.1,0.2,2,0,2.7-0.6c0.6-0.5,0.8-1.3,0.8-2.3
			c-0.1-1-0.6-2.1-1.6-3.2c-0.9-1.1-1.9-1.7-2.9-1.9c-1-0.2-1.8,0-2.5,0.6c-0.7,0.6-1,1.4-0.9,2.4
			C145.6,130.8,146.1,131.8,147,132.8"/>
		<path id="text5690" class="st2" d="M217.1,119.4l-1.8-0.6l4.6-13.8c-0.6,0.3-1.3,0.7-2.1,0.9c-0.9,0.3-1.6,0.4-2.3,0.5l0.7-2.1
			c1.2-0.2,2.3-0.6,3.3-1.2c1-0.6,1.8-1.2,2.4-1.8l1.2,0.4L217.1,119.4 M231.6,122l-0.7,2.1l-9.6-3.2c0.3-0.9,0.8-1.7,1.7-2.6
			c0.9-0.9,2.3-1.8,4.2-2.7c2.2-1.1,3.7-2,4.5-2.7c0.8-0.7,1.4-1.5,1.6-2.3c0.3-0.9,0.3-1.7-0.1-2.5c-0.3-0.7-0.9-1.2-1.7-1.5
			c-0.8-0.3-1.6-0.2-2.3,0.2c-0.7,0.4-1.3,1.2-1.7,2.4l-1.8-0.8c0.7-1.7,1.6-2.8,2.7-3.3c1.1-0.6,2.4-0.6,3.7-0.2
			c1.5,0.5,2.4,1.4,2.9,2.6c0.4,1.2,0.4,2.5,0,3.8c-0.4,1.1-1,2.1-2,2.9c-0.9,0.8-2.5,1.8-4.8,3c-1.4,0.7-2.4,1.2-2.8,1.5
			c-0.4,0.3-0.8,0.6-1.1,0.9L231.6,122"/>
		<path id="text5694" class="st2" d="M248.3,136.3l-1.3-1.5l11.7-10.4c-0.7,0-1.6-0.1-2.5-0.3c-0.9-0.2-1.7-0.5-2.4-0.8l1.8-1.6
			c1.2,0.4,2.4,0.6,3.7,0.6c1.3,0,2.3-0.1,3.2-0.4l0.9,1L248.3,136.3 M255.6,136.6l1.6,1.4c-0.8,1-1.3,1.9-1.4,2.7
			c-0.1,0.8,0.1,1.6,0.6,2.1c0.6,0.7,1.5,1,2.6,1c1.1-0.1,2.3-0.6,3.4-1.6c1.1-0.9,1.7-1.9,1.8-3c0.2-1-0.1-1.9-0.8-2.7
			c-0.4-0.5-0.9-0.8-1.5-0.9c-0.6-0.2-1.2-0.2-1.9,0l-1-1.6l8.8-5.6l5.4,6.1l-1.8,1.6l-4.3-4.9l-4.6,2.9c1.3,0.2,2.3,0.7,3,1.5
			c0.9,1,1.3,2.3,1.1,3.9c-0.2,1.5-1,3-2.5,4.3c-1.5,1.3-3.1,2-4.8,2.2c-1.7,0.2-3.1-0.4-4.3-1.7c-0.9-1.1-1.4-2.3-1.3-3.7
			C253.7,139.2,254.4,137.9,255.6,136.6"/>
		<path id="text5698" class="st2" d="M269.6,210.3l-2.2-0.7l3.4-10.3c0.9,0.3,1.8,0.9,2.8,1.8c0.9,1,1.9,2.5,2.9,4.5
			c1.2,2.4,2.2,4,3,4.9c0.8,0.9,1.6,1.5,2.4,1.7c1,0.3,1.9,0.3,2.6-0.1c0.8-0.4,1.3-1,1.6-1.8c0.3-0.9,0.2-1.7-0.3-2.5
			c-0.5-0.8-1.3-1.4-2.5-1.8l0.9-1.9c1.8,0.7,3,1.7,3.6,2.9c0.6,1.2,0.7,2.5,0.2,4c-0.5,1.6-1.5,2.6-2.8,3.1c-1.3,0.5-2.7,0.5-4.1,0
			c-1.2-0.4-2.3-1.1-3.2-2.1c-0.9-1-2-2.7-3.2-5.1c-0.8-1.5-1.3-2.5-1.6-3c-0.3-0.5-0.6-0.9-1-1.2L269.6,210.3 M264.3,218.7l0.6-1.9
			l14.9,5c-0.4-0.6-0.7-1.4-1-2.3c-0.3-0.9-0.5-1.7-0.5-2.5l2.3,0.8c0.3,1.3,0.7,2.4,1.3,3.5c0.6,1.1,1.3,2,2,2.6l-0.4,1.2
			L264.3,218.7"/>
		<path id="text5702" class="st2" d="M248.5,241.5l-1.6-1.8l8.1-7.2c0.7,0.7,1.2,1.7,1.5,3c0.3,1.3,0.4,3.1,0.3,5.4
			c-0.2,2.7-0.1,4.6,0.1,5.7c0.2,1.2,0.7,2.1,1.3,2.7c0.7,0.8,1.5,1.2,2.3,1.3c0.9,0.1,1.6-0.2,2.3-0.7c0.7-0.6,1-1.4,1-2.3
			c0-0.9-0.4-1.9-1.3-2.8l1.7-1.2c1.2,1.5,1.7,3,1.7,4.3c-0.1,1.4-0.7,2.5-1.8,3.6c-1.3,1.1-2.6,1.5-4,1.3c-1.4-0.3-2.6-0.9-3.5-2
			c-0.8-1-1.4-2.1-1.7-3.4c-0.3-1.3-0.3-3.3-0.2-6c0.1-1.7,0.1-2.9,0.1-3.4c0-0.6-0.1-1.1-0.3-1.6L248.5,241.5 M240.6,245.4l3.2,3.6
			l5.3-4.7l1.5,1.7l3,14.7l-1.2,1.1l-8.6-9.7l-1.7,1.5l-1.5-1.7l1.7-1.5l-3.2-3.6L240.6,245.4 M245.2,250.7l6,6.8l-2.1-10.2
			L245.2,250.7"/>
		<path id="text5706" class="st2" d="M188.7,262.8l-2-0.3c0.4-2.6-0.2-4.2-1.8-4.7c-0.9-0.3-1.8-0.2-2.6,0.3
			c-0.9,0.5-1.5,1.4-1.9,2.6c-0.4,1.1-0.4,2.1,0,3c0.4,0.9,1,1.4,1.8,1.7c0.4,0.1,0.8,0.2,1.4,0.2l-0.9,2l-0.3-0.1
			c-0.9-0.3-1.8-0.3-2.6,0.1c-0.8,0.4-1.3,1.1-1.7,2c-0.3,0.9-0.3,1.7,0,2.4c0.3,0.7,0.8,1.2,1.5,1.4c0.7,0.2,1.5,0.2,2.2-0.2
			c0.7-0.4,1.3-1.1,1.8-2.2l1.8,1.1c-0.8,1.5-1.7,2.6-2.9,3.1c-1.1,0.5-2.3,0.6-3.5,0.2c-1.3-0.4-2.2-1.2-2.7-2.5
			c-0.6-1.2-0.6-2.6-0.1-4c0.3-0.9,0.7-1.6,1.3-2.1c0.6-0.5,1.3-0.9,2.1-1c-0.6-0.4-1-0.8-1.3-1.4c-0.3-0.5-0.4-1.2-0.5-1.9
			c0-0.7,0.1-1.5,0.4-2.4c0.6-1.7,1.6-3,3-3.8c1.4-0.8,2.8-0.9,4.2-0.4c1.3,0.4,2.3,1.3,2.9,2.6C189,259.6,189.1,261.1,188.7,262.8
			 M175.1,263.1c-1.1,3.2-2.3,5.5-3.7,6.8c-1.4,1.4-3,1.8-4.6,1.2c-1.5-0.5-2.4-1.6-2.8-3.2c-0.5-2-0.2-4.7,1-8.2
			c1.1-3.2,2.3-5.4,3.7-6.8c1.4-1.4,2.9-1.8,4.6-1.2c1.5,0.5,2.5,1.6,2.9,3.4C176.7,256.9,176.3,259.5,175.1,263.1 M173.2,262.5
			c1-3.1,1.4-5.3,1.2-6.5c-0.2-1.2-0.8-2-1.8-2.3c-0.9-0.3-1.8,0-2.7,0.9c-0.9,0.9-1.9,2.8-2.9,5.9c-1,3.1-1.4,5.3-1.2,6.5
			c0.2,1.2,0.8,2,1.8,2.3c0.9,0.3,1.8,0,2.7-0.9C171.2,267.5,172.1,265.5,173.2,262.5"/>
		<path id="text5710" class="st2" d="M151.9,246.3l-1.6-1.3c1.7-2.1,2-3.7,0.8-5c-0.6-0.7-1.4-1-2.5-1c-1,0-2,0.4-2.9,1.3
			c-0.9,0.8-1.4,1.6-1.5,2.6c-0.1,0.9,0.1,1.7,0.7,2.4c0.3,0.3,0.6,0.6,1.1,0.9l-1.8,1.3l-0.2-0.3c-0.7-0.7-1.4-1.1-2.3-1.2
			c-0.9-0.1-1.7,0.3-2.4,0.9c-0.7,0.6-1.1,1.3-1.2,2.1c-0.1,0.8,0.1,1.4,0.6,2c0.5,0.6,1.2,0.9,2,0.9c0.8,0,1.7-0.3,2.7-1l1,1.8
			c-1.5,0.9-2.8,1.4-4,1.3c-1.2-0.1-2.3-0.6-3.1-1.6c-0.9-1-1.3-2.2-1.1-3.5c0.1-1.3,0.7-2.5,1.9-3.5c0.7-0.6,1.4-1,2.2-1.2
			c0.8-0.2,1.6-0.1,2.3,0.1c-0.3-0.6-0.4-1.2-0.4-1.8c0-0.6,0.2-1.2,0.6-1.9c0.3-0.7,0.8-1.3,1.5-1.9c1.4-1.2,2.9-1.8,4.5-1.8
			c1.6,0,2.9,0.6,3.9,1.8c0.9,1.1,1.3,2.3,1.2,3.7C153.7,243.8,153.1,245.1,151.9,246.3 M143.4,236.7l-1.6-1.3c1.7-2.1,2-3.7,0.8-5
			c-0.6-0.7-1.4-1-2.5-1c-1,0-2,0.4-2.9,1.3c-0.9,0.8-1.4,1.6-1.5,2.6c-0.1,0.9,0.1,1.7,0.7,2.4c0.3,0.3,0.6,0.6,1.1,0.9l-1.8,1.3
			l-0.2-0.3c-0.7-0.7-1.4-1.1-2.3-1.2c-0.9-0.1-1.7,0.3-2.4,0.9c-0.7,0.6-1.1,1.3-1.2,2.1c-0.1,0.8,0.1,1.4,0.6,2
			c0.5,0.6,1.2,0.9,2,0.9c0.8,0,1.7-0.3,2.7-1l1,1.8c-1.5,0.9-2.8,1.4-4,1.3c-1.2-0.1-2.3-0.6-3.1-1.6c-0.9-1-1.3-2.2-1.1-3.5
			c0.1-1.3,0.7-2.5,1.9-3.5c0.7-0.6,1.4-1,2.2-1.2c0.8-0.2,1.6-0.1,2.3,0.1c-0.3-0.6-0.4-1.2-0.4-1.8c0-0.6,0.2-1.2,0.6-1.9
			s0.8-1.3,1.5-1.9c1.4-1.2,2.9-1.8,4.5-1.8c1.6,0,2.9,0.6,3.9,1.8c0.9,1.1,1.3,2.3,1.2,3.7C145.2,234.2,144.6,235.5,143.4,236.7"/>
	</g>
	
		<path id="path4261" sodipodi:cx="191.42857" sodipodi:cy="187.36218" sodipodi:rx="114.28571" sodipodi:ry="114.28571" sodipodi:type="arc" class="st3" d="
		M323,187.8c0,67.7-54.8,122.5-122.5,122.5S78,255.5,78,187.8c0-67.7,54.8-122.5,122.5-122.5S323,120.2,323,187.8z"/>
	<path id="path4808" class="st4" d="M336.1,187.8c0,74.9-60.8,135.6-135.6,135.6S64.8,262.7,64.8,187.8S125.6,52.2,200.5,52.2
		S336.1,112.9,336.1,187.8z M362.3,187.8c0,89.4-72.5,161.9-161.9,161.9S38.6,277.2,38.6,187.8S111.1,25.9,200.5,25.9
		S362.3,98.4,362.3,187.8z"/>
</g>
</svg>
